<?xml version="1.0" encoding="UTF-8" standalone="no"?>
<svg
   xmlns:dc="http://purl.org/dc/elements/1.1/"
   xmlns:cc="http://creativecommons.org/ns#"
   xmlns:rdf="http://www.w3.org/1999/02/22-rdf-syntax-ns#"
   xmlns:svg="http://www.w3.org/2000/svg"
   xmlns="http://www.w3.org/2000/svg"
   id="svg4182"
   viewBox="0 0 120 120"
   height="120"
   width="120"
   version="1.1">
  <metadata
     id="metadata4188">
    <rdf:RDF>
      <cc:Work
         rdf:about="">
        <dc:format>image/svg+xml</dc:format>
        <dc:type
           rdf:resource="http://purl.org/dc/dcmitype/StillImage" />
        <dc:title></dc:title>
      </cc:Work>
    </rdf:RDF>
  </metadata>
  <defs
     id="defs4186" />
  <g
     style="display:inline"
     id="layer1" />
  <g
     id="layer2">
    <text
       id="text4259"
       y="54.610596"
       x="34.966431"
       style="font-style:normal;font-variant:normal;font-weight:normal;font-stretch:normal;font-size:27.5px;line-height:100%;font-family:monospace;-inkscape-font-specification:monospace;letter-spacing:0px;word-spacing:0px;fill:#ffffff;fill-opacity:1;stroke:none;stroke-width:1px;stroke-linecap:butt;stroke-linejoin:miter;stroke-opacity:1;"
       xml:space="preserve"><tspan
         style="font-style:normal;font-variant:normal;font-weight:normal;font-stretch:normal;font-size:27.5px;line-height:100%;font-family:monospace;-inkscape-font-specification:monospace;text-align:center;text-anchor:middle;fill:#ffffff;"
         id="tspan4265"
         y="54.610596"
         x="34.966431">C</tspan><tspan
         style="font-style:normal;font-variant:normal;font-weight:normal;font-stretch:normal;font-size:27.5px;line-height:100%;font-family:monospace;-inkscape-font-specification:monospace;text-align:center;text-anchor:middle;fill:#ffffff;"
         id="tspan4281"
         y="82.110596"
         x="34.966431">S</tspan><tspan
         style="font-style:normal;font-variant:normal;font-weight:normal;font-stretch:normal;font-size:27.5px;line-height:100%;font-family:monospace;-inkscape-font-specification:monospace;text-align:center;text-anchor:middle;fill:#ffffff;"
         id="tspan4283"
         y="109.6106"
         x="34.966431">S</tspan></text>
    <text
       id="text4267"
       y="67.346878"
       x="85.256699"
       style="font-style:normal;font-variant:normal;font-weight:normal;font-stretch:normal;font-size:42.05757904px;line-height:75%;font-family:monospace;-inkscape-font-specification:monospace;letter-spacing:0px;word-spacing:0px;fill:#000000;fill-opacity:1;stroke:none;stroke-width:1px;stroke-linecap:butt;stroke-linejoin:miter;stroke-opacity:1"
       xml:space="preserve"><tspan
         style="font-style:normal;font-variant:normal;font-weight:normal;font-stretch:normal;font-size:42.05757904px;line-height:100%;font-family:monospace;-inkscape-font-specification:monospace;text-align:center;text-anchor:middle;fill:#000000"
         id="tspan4271"
         y="67.346878"
         x="85.256699">J</tspan><tspan
         style="font-style:normal;font-variant:normal;font-weight:normal;font-stretch:normal;font-size:42.05757904px;line-height:100%;font-family:monospace;-inkscape-font-specification:monospace;text-align:center;text-anchor:middle;fill:#000000"
         id="tspan4275"
         y="109.40446"
         x="85.256699">S</tspan></text>
    <path
       style="fill:#264de4;fill-opacity:1;fill-rule:evenodd;stroke:none;stroke-width:1px;stroke-linecap:butt;stroke-linejoin:miter;stroke-opacity:1"
       d="M 32.333333,0 30,20 l -8.333333,0 0,5 L 15,25 l 0,95 20,0 20,0 0,-95 -6.666667,0 0,-5 L 40,20 37.666667,0 35,0 Z"
       id="path4287" />
    <path
       style="fill:#2965ff;fill-opacity:1;fill-rule:evenodd;stroke:none;stroke-width:1px;stroke-linecap:butt;stroke-linejoin:miter;stroke-opacity:1"
       d="m 160,30 15,0 0,85 -15,0 z"
       id="path4299" />
    <path
       id="path4289"
       d="M 82.33333,0 80,20 l -8.33333,0 0,5 L 65,25 l 0,95 20,0 20,0 0,-95 -6.66667,0 0,-5 L 90,20 87.66667,0 85,0 Z"
       style="fill:#d7bd0e;fill-opacity:1;fill-rule:evenodd;stroke:none;stroke-width:1px;stroke-linecap:butt;stroke-linejoin:miter;stroke-opacity:1" />
    <path
       id="path4291"
       d="m 135,25 15,0 0,85 -15,0 z"
       style="fill:#f0db4f;fill-opacity:1;fill-rule:evenodd;stroke:none;stroke-width:1px;stroke-linecap:butt;stroke-linejoin:miter;stroke-opacity:1" />
    <path
       id="path4238"
       d="M -62.666667,-5 -65,15 l -8.333333,0 0,6.666667 -6.666667,0 0,93.333333 20,0 20,0 0,-93.333333 -6.666667,0 0,-6.666667 L -55,15 -57.333333,-5 -60,-5 Z"
       style="fill:#2965ff;fill-opacity:1;fill-rule:evenodd;stroke:none;stroke-width:1px;stroke-linecap:butt;stroke-linejoin:miter;stroke-opacity:1" />
    <path
       style="fill:#f0db4f;fill-opacity:1;fill-rule:evenodd;stroke:none;stroke-width:1px;stroke-linecap:butt;stroke-linejoin:miter;stroke-opacity:1"
       d="M 267.33333,90.000001 265,110 l -8.33333,0 0,6.66667 -6.66667,0 0,93.33333 20,0 20,0 0,-93.33333 -6.66667,0 0,-6.66667 -8.33333,0 -2.33333,-19.999999 -2.66667,0 z"
       id="path4245" />
    <rect
       y="65"
       x="-135"
       height="60"
       width="50"
       id="rect4285"
       style="opacity:0.98999999;fill:#264de4;fill-opacity:1;stroke:none;stroke-width:10;stroke-miterlimit:4;stroke-dasharray:none" />
    <path
       style="fill:#2965ff;fill-opacity:1;fill-rule:evenodd;stroke:none;stroke-width:1px;stroke-linecap:butt;stroke-linejoin:miter;stroke-opacity:1"
       d="m -12.666667,3e-6 -2.333333,20 -8.333333,0 0,4.999997 L -30,25 l 0,95 20,0 L -10,3e-6 Z"
       id="path4301" />
  </g>
</svg>
