<?xml version="1.0" encoding="UTF-8" standalone="no"?>
<svg
   xmlns:dc="http://purl.org/dc/elements/1.1/"
   xmlns:cc="http://creativecommons.org/ns#"
   xmlns:rdf="http://www.w3.org/1999/02/22-rdf-syntax-ns#"
   xmlns:svg="http://www.w3.org/2000/svg"
   xmlns="http://www.w3.org/2000/svg"
   version="1.1"
   id="svg2"
   viewBox="0 0 1400 560"
   height="560"
   width="1400">
  <defs
     id="defs4" />
  <metadata
     id="metadata7">
    <rdf:RDF>
      <cc:Work
         rdf:about="">
        <dc:format>image/svg+xml</dc:format>
        <dc:type
           rdf:resource="http://purl.org/dc/dcmitype/StillImage" />
        <dc:title></dc:title>
      </cc:Work>
    </rdf:RDF>
  </metadata>
  <g
     transform="translate(0,-492.36216)"
     id="layer1">
    <rect
       y="492.36215"
       x="0"
       height="560"
       width="1400"
       id="rect4240"
       style="opacity:0.98999999;fill:#ffffff;fill-opacity:1;stroke:none;stroke-width:4;stroke-miterlimit:4;stroke-dasharray:none;stroke-opacity:1" />
    <g
       id="g4165"
       transform="matrix(2.8397602,0,0,2.8397602,947.71473,601.97655)">
      <path
         id="path4287"
         d="M 32.333333,0 30,20 l -8.333333,0 0,5 L 15,25 l 0,95 20,0 20,0 0,-95 -6.666667,0 0,-5 L 40,20 37.666667,0 35,0 Z"
         style="fill:#264de4;fill-opacity:1;fill-rule:evenodd;stroke:none;stroke-width:1px;stroke-linecap:butt;stroke-linejoin:miter;stroke-opacity:1" />
      <path
         style="fill:#d7bd0e;fill-opacity:1;fill-rule:evenodd;stroke:none;stroke-width:1px;stroke-linecap:butt;stroke-linejoin:miter;stroke-opacity:1"
         d="M 82.33333,0 80,20 l -8.33333,0 0,5 L 65,25 l 0,95 20,0 20,0 0,-95 -6.66667,0 0,-5 L 90,20 87.66667,0 85,0 Z"
         id="path4289" />
    </g>
    <text
       id="text4151"
       y="810.23132"
       x="144.90613"
       style="font-style:normal;font-variant:normal;font-weight:normal;font-stretch:normal;font-size:101.57958221px;line-height:75%;font-family:'Source Code Pro';-inkscape-font-specification:'Source Code Pro';letter-spacing:0px;word-spacing:0px;fill:#000000;fill-opacity:1;stroke:none;stroke-width:1px;stroke-linecap:butt;stroke-linejoin:miter;stroke-opacity:1"
       xml:space="preserve"><tspan
         y="810.23132"
         x="144.90613"
         id="tspan4153">Web sauce</tspan></text>
  </g>
</svg>
